<svg id="logo" xmlns="http://www.w3.org/2000/svg" viewBox="0 0 2245.95 2119.88"><defs><style>.cls-1{fill:#fff;}</style></defs><title>logo</title><rect width="2245.95" height="2119.88"/><polygon class="cls-1" points="2108.36 131.61 2112.87 1981.22 141.46 1981.22 141.46 131.61 2108.36 131.61"/><polygon points="263.66 254.87 1989.6 254.87 1989.6 863.2 1904.44 863.2 1904.44 344 353.86 344 353.86 863.2 263.66 863.2 263.66 254.87"/><path d="M6542.18,7014.85V6612.61h244.24c3,0,6-.13,8.93-.36,453.86-34.25,580.52,533.53,115,634.25l346.76,520.85H7097.61l-363.86-529.12H6344V7115h537.59c200.05-4.35,259.49-321.83,0-369.67H6687.36v266.74Z" transform="translate(-6080.36 -6140.78)"/><rect x="461.89" y="1204.08" width="144.93" height="422.5"/><polygon points="263.66 1215.06 263.66 1854.96 1989.6 1854.96 1989.6 1703.77 1903.47 1703.77 1903.47 1764.86 350.29 1764.86 350.29 1215.06 263.66 1215.06"/><polygon points="1252.88 1626.57 1252.88 469.98 1390.33 469.98 1390.33 1488.43 1989.6 1488.43 1989.6 1626.57 1252.88 1626.57"/><polygon points="1509.45 469.98 1509.45 1102.05 1989.6 1102.05 1989.6 978.34 1653.01 978.34 1653.01 469.98 1509.45 469.98"/><rect x="1909.58" y="1215.06" width="80.02" height="187.85"/></svg>